<?xml version="1.0" encoding="UTF-8"?>
<svg version="1.1" xmlns="http://www.w3.org/2000/svg" width="512" height="512">
<path d="M0 0 C1.83396389 0.00084733 3.66792879 0.00036906 5.50189209 -0.00132751 C10.45577765 -0.00218475 15.40944326 0.01539694 20.36327791 0.03639436 C25.54957736 0.05520654 30.73588239 0.05691517 35.92221069 0.06047058 C45.73214899 0.06977773 55.54198645 0.09437348 65.35188043 0.12451905 C76.52479968 0.15810452 87.69772385 0.17455949 98.87068105 0.18960536 C121.84401896 0.22092423 144.81726749 0.2736588 167.79052734 0.34057617 C167.7986142 1.31395432 167.80670105 2.28733246 167.81503296 3.29020691 C167.89289214 12.51329022 167.98072773 21.7362332 168.07805443 30.95913219 C168.12776453 35.69945094 168.17409442 40.43975009 168.21240234 45.18017578 C168.24957755 49.76442986 168.29601968 54.34850902 168.34859085 58.93261147 C168.36696517 60.67184661 168.38213396 62.41111901 168.39387131 64.15041161 C168.52810703 83.37392417 169.69859058 99.84641282 183.66943359 114.28198242 C195.12246738 124.99461806 209.02608509 127.42422805 224.15600586 127.54589844 C224.93760574 127.55579803 225.71920563 127.56569763 226.52449036 127.57589722 C229.07277541 127.60713925 231.62107902 127.6321198 234.16943359 127.65698242 C235.95019477 127.67758429 237.73095141 127.69858154 239.51170349 127.71995544 C244.17225445 127.77484257 248.83284706 127.82439731 253.49346924 127.87280273 C258.25984351 127.92326317 263.02615815 127.97882043 267.79248047 128.03393555 C277.12511168 128.14110835 286.45779493 128.24264207 295.79052734 128.34057617 C295.88215281 164.06142402 295.95260155 199.7822512 295.99478866 235.50319244 C295.99979128 239.72372679 296.00496859 243.94426091 296.01025391 248.16479492 C296.01130315 249.00500056 296.01235239 249.8452062 296.01343343 250.71087262 C296.03082205 264.30190703 296.06235121 277.89287351 296.09913853 291.48386768 C296.13659093 305.4373145 296.15877227 319.39072585 296.16688132 333.34422088 C296.17236019 341.94906192 296.18964274 350.55371097 296.22219321 359.15849289 C296.24339423 365.06516335 296.2497148 370.97173505 296.24453285 376.87844077 C296.24197965 380.28258121 296.24800719 383.68611816 296.26734924 387.09024429 C296.28734124 390.79099732 296.28243194 394.49093839 296.27154541 398.19171143 C296.28319678 399.25400475 296.29484814 400.31629807 296.30685258 401.4107821 C296.1968409 415.30984922 290.81574059 426.02610695 281.47802734 436.09057617 C272.11360315 444.95333478 260.93664266 448.83533236 248.19796753 448.70133972 C247.28695821 448.703903 246.37594889 448.70646627 245.43733323 448.70910722 C242.41409118 448.71401068 239.39135934 448.69760933 236.36816406 448.68115234 C234.18937695 448.68030533 232.01058898 448.68078267 229.83180237 448.68247986 C223.93787876 448.68333832 218.04413944 448.66573655 212.15025854 448.64475799 C205.98300461 448.62596641 199.81574616 448.62423879 193.64846802 448.62068176 C181.97919921 448.6113686 170.31001502 448.58676462 158.64078343 448.55663329 C145.35181535 448.52306664 132.06285757 448.50659758 118.77385688 448.49154699 C91.44603351 448.46021447 64.11828517 448.40746809 36.79052734 448.34057617 C36.93322839 447.33701112 37.07592943 446.33344606 37.22295475 445.29946995 C38.41720178 436.58013526 39.05735765 428.10275069 38.93481445 419.28759766 C38.92719086 418.0901593 38.91956726 416.89272095 38.91171265 415.65899658 C38.89533267 413.0919314 38.8749923 410.52488884 38.8509655 407.95788383 C38.81721112 403.88197739 38.8030959 399.80650095 38.79750061 395.73048401 C38.79643608 395.03664264 38.79537154 394.34280126 38.79427475 393.6279344 C38.79213628 392.21128535 38.79004924 390.79463622 38.78801262 389.37798703 C38.77326059 379.91792211 38.74139904 370.45862383 38.64331055 360.99902344 C38.5769054 354.57584934 38.55025934 348.15380707 38.56786162 341.73029763 C38.57557088 338.3481257 38.56413066 334.96866586 38.50343132 331.58697319 C38.24634121 314.97163354 39.02159331 304.4931369 50.79052734 292.34057617 C52.57111027 289.71673151 54.09529553 287.03532049 55.54052734 284.21557617 C55.89775879 283.52657227 56.25499023 282.83756836 56.62304688 282.12768555 C72.00290091 251.27215284 74.12312318 216.52277002 63.66552734 183.84057617 C57.34405994 165.13999395 47.31244872 149.67909671 33.79052734 135.34057617 C33.17822266 134.66381836 32.56591797 133.98706055 31.93505859 133.28979492 C10.49432026 110.47758079 -21.94941266 99.0033975 -52.61181641 97.55151367 C-55.20947266 97.34057617 -55.20947266 97.34057617 -56.20947266 96.34057617 C-56.32413736 94.59423693 -56.36910728 92.84327518 -56.38647461 91.09326172 C-56.39930984 89.97086594 -56.41214508 88.84847015 -56.42536926 87.69206238 C-56.4327562 86.46618912 -56.44014313 85.24031586 -56.44775391 83.97729492 C-56.45582565 82.71979935 -56.4638974 81.46230377 -56.47221375 80.16670227 C-56.48608372 77.49244485 -56.49708845 74.81831184 -56.50463867 72.14404297 C-56.51560558 68.74943357 -56.54987588 65.3554976 -56.58981037 61.96112347 C-56.62259147 58.6957486 -56.62678606 55.43030919 -56.63525391 52.16479492 C-56.65276199 50.9611882 -56.67027008 49.75758148 -56.68830872 48.51750183 C-56.65157738 33.99016521 -51.70430482 23.16121485 -41.89697266 12.59057617 C-29.62258379 0.97374385 -16.0738473 -0.10432028 0 0 Z M59.79052734 102.40307617 C56.36336915 107.43671477 56.13284075 111.31950169 56.79052734 117.34057617 C59.13845392 122.21703907 62.07813589 124.74395231 66.79052734 127.34057617 C70.10458934 128.16636163 73.21313588 128.47313458 76.62158203 128.50170898 C77.55315125 128.51131653 78.48472046 128.52092407 79.44451904 128.53082275 C80.44042053 128.53507263 81.43632202 128.53932251 82.46240234 128.54370117 C84.01788788 128.55225128 84.01788788 128.55225128 85.60479736 128.56097412 C87.79690537 128.57040671 89.98902744 128.57695117 92.18115234 128.58081055 C95.51474089 128.59050121 98.84770872 128.62153561 102.18115234 128.65307617 C104.31656537 128.65960845 106.45198278 128.66485804 108.58740234 128.66870117 C109.57520691 128.68104797 110.56301147 128.69339478 111.58074951 128.70611572 C118.04976406 128.68555376 125.34926052 128.41716777 130.41473389 123.88848877 C134.46986107 119.14182577 135.14652048 115.94438015 135.06787109 109.87963867 C134.6567629 106.11597215 133.30766374 104.1226743 130.79052734 101.34057617 C125.63417694 97.2813216 121.40150688 96.23344958 114.95947266 96.17944336 C114.02790344 96.16983582 113.09633423 96.16022827 112.13653564 96.15032959 C111.14063416 96.14607971 110.14473267 96.14182983 109.11865234 96.13745117 C108.08166199 96.1317511 107.04467163 96.12605103 105.97625732 96.12017822 C103.78414932 96.11074564 101.59202725 96.10420117 99.39990234 96.1003418 C96.06631379 96.09065113 92.73334596 96.05961674 89.39990234 96.02807617 C87.26448932 96.0215439 85.1290719 96.01629431 82.99365234 96.01245117 C82.00584778 96.00010437 81.01804321 95.98775757 80.00030518 95.97503662 C72.62064786 95.99849309 64.86982675 96.45758507 59.79052734 102.40307617 Z M107.79052734 182.40307617 C104.36336915 187.43671477 104.13284075 191.31950169 104.79052734 197.34057617 C107.13845392 202.21703907 110.07813589 204.74395231 114.79052734 207.34057617 C119.47116903 208.65880984 124.20507306 208.49548042 129.02783203 208.50170898 C129.9504483 208.50667389 130.87306458 208.51163879 131.82363892 208.51675415 C134.86990104 208.53133502 137.91611108 208.53817122 140.96240234 208.54370117 C143.08603923 208.54945626 145.20967611 208.55521395 147.33331299 208.56097412 C151.78519939 208.57147271 156.2370678 208.57732276 160.68896484 208.58081055 C166.37937107 208.58629087 172.06953751 208.61031403 177.75986862 208.6387825 C182.14720341 208.65745328 186.53448096 208.66261686 190.92185211 208.66414642 C193.01890625 208.66716377 195.1159596 208.67516112 197.21297455 208.6883316 C200.15404743 208.70548387 203.09454123 208.70348937 206.03564453 208.69702148 C207.32183182 208.71084366 207.32183182 208.71084366 208.63400269 208.72494507 C214.74594147 208.68307262 221.66471467 208.12523068 226.42039108 203.8885994 C230.46525386 199.13407561 231.14654679 195.94640874 231.06787109 189.87963867 C230.6567629 186.11597215 229.30766374 184.1226743 226.79052734 181.34057617 C220.26021988 176.19969583 214.51508409 176.18972605 206.55322266 176.17944336 C205.63060638 176.17447845 204.70799011 176.16951355 203.75741577 176.16439819 C200.71115365 176.14981733 197.66494361 176.14298112 194.61865234 176.13745117 C192.49501546 176.13169609 190.37137857 176.1259384 188.2477417 176.12017822 C183.79585529 176.10967963 179.34398688 176.10382958 174.89208984 176.1003418 C169.20168361 176.09486147 163.51151718 176.07083831 157.82118607 176.04236984 C153.43385128 176.02369906 149.04657373 176.01853548 144.65920258 176.01700592 C142.56214844 176.01398858 140.46509509 176.00599123 138.36808014 175.99282074 C135.42700726 175.97566847 132.48651346 175.97766297 129.54541016 175.98413086 C128.68795197 175.97491608 127.83049377 175.96570129 126.947052 175.95620728 C119.94186875 176.00419928 112.56242098 176.7939658 107.79052734 182.40307617 Z M107.79052734 262.40307617 C104.36336915 267.43671477 104.13284075 271.31950169 104.79052734 277.34057617 C107.13845392 282.21703907 110.07813589 284.74395231 114.79052734 287.34057617 C119.47116903 288.65880984 124.20507306 288.49548042 129.02783203 288.50170898 C129.9504483 288.50667389 130.87306458 288.51163879 131.82363892 288.51675415 C134.86990104 288.53133502 137.91611108 288.53817122 140.96240234 288.54370117 C143.08603923 288.54945626 145.20967611 288.55521395 147.33331299 288.56097412 C151.78519939 288.57147271 156.2370678 288.57732276 160.68896484 288.58081055 C166.37937107 288.58629087 172.06953751 288.61031403 177.75986862 288.6387825 C182.14720341 288.65745328 186.53448096 288.66261686 190.92185211 288.66414642 C193.01890625 288.66716377 195.1159596 288.67516112 197.21297455 288.6883316 C200.15404743 288.70548387 203.09454123 288.70348937 206.03564453 288.69702148 C207.32183182 288.71084366 207.32183182 288.71084366 208.63400269 288.72494507 C214.74594147 288.68307262 221.66471467 288.12523068 226.42039108 283.8885994 C230.46525386 279.13407561 231.14654679 275.94640874 231.06787109 269.87963867 C230.6567629 266.11597215 229.30766374 264.1226743 226.79052734 261.34057617 C220.26021988 256.19969583 214.51508409 256.18972605 206.55322266 256.17944336 C205.63060638 256.17447845 204.70799011 256.16951355 203.75741577 256.16439819 C200.71115365 256.14981733 197.66494361 256.14298112 194.61865234 256.13745117 C192.49501546 256.13169609 190.37137857 256.1259384 188.2477417 256.12017822 C183.79585529 256.10967963 179.34398688 256.10382958 174.89208984 256.1003418 C169.20168361 256.09486147 163.51151718 256.07083831 157.82118607 256.04236984 C153.43385128 256.02369906 149.04657373 256.01853548 144.65920258 256.01700592 C142.56214844 256.01398858 140.46509509 256.00599123 138.36808014 255.99282074 C135.42700726 255.97566847 132.48651346 255.97766297 129.54541016 255.98413086 C128.68795197 255.97491608 127.83049377 255.96570129 126.947052 255.95620728 C119.94186875 256.00419928 112.56242098 256.7939658 107.79052734 262.40307617 Z M75.79052734 342.40307617 C72.36336915 347.43671477 72.13284075 351.31950169 72.79052734 357.34057617 C75.13845392 362.21703907 78.07813589 364.74395231 82.79052734 367.34057617 C86.29854907 368.22982578 89.57963394 368.46943846 93.19061279 368.48101807 C94.26149139 368.48672821 95.33237 368.49243835 96.43569946 368.49832153 C98.18286758 368.49999832 98.18286758 368.49999832 99.96533203 368.50170898 C101.20006256 368.50667389 102.43479309 368.51163879 103.7069397 368.51675415 C107.0873212 368.52884033 110.46764103 368.53631511 113.84803677 368.54076481 C115.96328177 368.54370239 118.07852143 368.54780849 120.19376373 368.55226898 C126.82151219 368.56593351 133.44924835 368.57560509 140.07700992 368.57947087 C147.70983617 368.58394822 155.34248304 368.60148536 162.97525477 368.63047147 C168.8871283 368.65213761 174.79895153 368.66217779 180.71086431 368.66351199 C184.23621484 368.66455656 187.76139652 368.67038961 191.28670502 368.6883316 C195.22390947 368.70798114 199.16089237 368.70350369 203.09814453 368.69702148 C204.83316727 368.71084366 204.83316727 368.71084366 206.60324097 368.72494507 C217.22999243 368.68050522 217.22999243 368.68050522 226.40891647 363.8885994 C230.47429886 359.14964366 231.14649644 355.94252641 231.06787109 349.87963867 C230.6567629 346.11597215 229.30766374 344.1226743 226.79052734 341.34057617 C221.42253579 337.11471048 217.08447443 336.22160054 210.39044189 336.20013428 C209.31956329 336.19442413 208.24868469 336.18871399 207.14535522 336.18283081 C205.3981871 336.18115402 205.3981871 336.18115402 203.61572266 336.17944336 C202.38099213 336.17447845 201.1462616 336.16951355 199.87411499 336.16439819 C196.49373348 336.15231201 193.11341366 336.14483724 189.73301792 336.14038754 C187.61777292 336.13744995 185.50253326 336.13334385 183.38729095 336.12888336 C176.7595425 336.11521884 170.13180633 336.10554726 163.50404477 336.10168147 C155.87121852 336.09720412 148.23857165 336.07966698 140.60579991 336.05068088 C134.69392639 336.02901474 128.78210316 336.01897456 122.87019038 336.01764035 C119.34483984 336.01659578 115.81965816 336.01076273 112.29434967 335.99282074 C108.35714522 335.97317121 104.42016232 335.97764866 100.48291016 335.98413086 C98.74788742 335.97030869 98.74788742 335.97030869 96.97781372 335.95620728 C89.26760345 335.99588664 81.14067375 336.16649016 75.79052734 342.40307617 Z " fill="#000000" transform="translate(184.20947265625,31.659423828125)"/>
<path d="M0 0 C19.64310634 16.50723368 34.95998326 37.87100875 38 64 C40.00706443 92.38316441 35.11130766 117.2402984 16.84375 139.64453125 C0.42107852 158.46699451 -21.83614019 172.43272251 -47.21777344 174.22753906 C-75.8329536 175.49950262 -100.20094475 169.80835389 -122.1875 150.625 C-140.72962913 133.23989973 -153.23970686 111.00534464 -154.3828125 85.2890625 C-155.09445376 56.78869783 -148.21659255 32.57486407 -128.3359375 11.37109375 C-94.61920639 -22.8530798 -39.12763276 -29.61944513 0 0 Z " fill="#000000" transform="translate(186,178)"/>
<path d="M0 0 C0.55872803 0.25725357 1.11745605 0.51450714 1.69311523 0.77955627 C4.27228286 1.96357696 6.85484317 3.140017 9.4375 4.31640625 C10.31599609 4.72105103 11.19449219 5.1256958 12.09960938 5.54260254 C41.85517863 19.05476026 76.74021669 20.44159265 107.4375 9.125 C112.29903349 7.22384165 117.01649536 5.08238783 121.75415039 2.89013672 C122.92401993 2.34912323 124.09388947 1.80810974 125.29920959 1.2507019 C126.19047043 0.83797028 127.08173126 0.42523865 128 0 C128.09268347 13.45623242 128.16375693 26.91238889 128.20724869 40.3688755 C128.22812265 46.61728821 128.25643747 52.86548252 128.30175781 59.11376953 C128.34522137 65.14380414 128.36913855 71.17362867 128.37950897 77.20380783 C128.38689934 79.50432009 128.40133093 81.80482086 128.42292023 84.10524368 C128.45196013 87.32773936 128.45595564 90.54936717 128.45410156 93.77197266 C128.46848267 94.72287781 128.48286377 95.67378296 128.49768066 96.65350342 C128.46258914 102.29070619 127.78408077 105.53780648 124 110 C119.35351746 114.41415841 115.11206934 114.46758261 109 114.53125 C101.72279963 113.2425791 96.73160516 106.99680782 91.7578125 101.953125 C90.98944061 101.18192322 90.22106873 100.41072144 89.42941284 99.6161499 C86.98985106 97.16544318 84.55735761 94.70785503 82.125 92.25 C80.46660843 90.58157131 78.80775914 88.91359745 77.1484375 87.24609375 C73.09364317 83.1693145 69.04462098 79.08687121 65 75 C61.87916401 76.38386613 59.78388806 77.97918194 57.39648438 80.40820312 C56.36521423 81.44938293 56.36521423 81.44938293 55.31311035 82.51159668 C54.58072144 83.26058228 53.84833252 84.00956787 53.09375 84.78125 C52.33203491 85.55053833 51.57031982 86.31982666 50.78552246 87.11242676 C48.35216414 89.57021464 45.92533645 92.03429734 43.5 94.5 C40.30781771 97.74531154 37.10914304 100.98401266 33.90625 104.21875 C33.17386108 104.9677356 32.44147217 105.71672119 31.68688965 106.48840332 C30.65561951 107.52958313 30.65561951 107.52958313 29.60351562 108.59179688 C29.00269165 109.20309448 28.40186768 109.81439209 27.78283691 110.44421387 C23.17005561 114.46954065 18.8398321 114.42784345 12.9140625 114.3125 C7.66776025 113.74989386 5.17346983 111.38375732 1.87213135 107.49081421 C-0.65197509 102.78431397 -0.53360222 99.02870314 -0.45410156 93.77197266 C-0.45468567 92.75672516 -0.45526978 91.74147766 -0.45587158 90.69546509 C-0.45309258 87.35131225 -0.42200816 84.00805897 -0.390625 80.6640625 C-0.38316199 78.34093716 -0.37746934 76.01780552 -0.37347412 73.69467163 C-0.35822271 67.58879122 -0.31894454 61.48329313 -0.2746582 55.37756348 C-0.23369523 49.14368868 -0.21546087 42.90975193 -0.1953125 36.67578125 C-0.1524503 24.45035312 -0.08420446 12.22520839 0 0 Z " fill="#000000" transform="translate(64,366)"/>
<path d="M0 0 C5.3083201 4.43539238 10.25540965 9.11234177 15.13842773 14.0090332 C15.91973557 14.78858871 16.7010434 15.56814423 17.50602722 16.37132263 C20.06772423 18.92864557 22.62577865 21.4895761 25.18359375 24.05078125 C26.96706265 25.83357625 28.75067996 27.6162228 30.53443909 29.39872742 C34.26050781 33.12332555 37.98482017 36.84967101 41.70776367 40.57739258 C46.01571148 44.89080524 50.32728226 49.20057137 54.64070553 53.50850803 C58.79540807 57.65813712 62.94730943 61.81056005 67.09800911 65.96419334 C68.86401929 67.73087261 70.6307781 69.49680384 72.398283 71.26198769 C74.85705312 73.71823507 77.31262359 76.17763582 79.76733398 78.63793945 C80.50439575 79.37297699 81.24145752 80.10801453 82.00085449 80.86532593 C82.6638707 81.53116196 83.3268869 82.19699799 84.00999451 82.88301086 C84.59085029 83.46424367 85.17170607 84.04547647 85.77016354 84.6443224 C87 86 87 86 87 87 C77.06415163 87.09276894 67.12840667 87.16379998 57.19221306 87.20724869 C52.57818149 87.22810426 47.96444671 87.25638462 43.35058594 87.30175781 C38.89612037 87.34528828 34.44193988 87.36915238 29.98727798 87.37950897 C28.28962849 87.38688745 26.59199421 87.40129606 24.8944664 87.42292023 C22.51247457 87.4520508 20.13165364 87.4559521 17.74951172 87.45410156 C17.05107651 87.46848267 16.3526413 87.48286377 15.63304138 87.49768066 C10.61357154 87.45561581 7.80556892 86.22897011 4 83 C0.21064575 78.53397887 -0.57148376 74.95129282 -0.45410156 69.25048828 C-0.45468567 68.49858719 -0.45526978 67.7466861 -0.45587158 66.97200012 C-0.45310062 64.50428957 -0.42205752 62.03781015 -0.390625 59.5703125 C-0.38315904 57.8525356 -0.37746779 56.13475015 -0.37347412 54.41696167 C-0.3582456 49.90897864 -0.31898817 45.40151605 -0.2746582 40.89373779 C-0.23364518 36.28860513 -0.21545026 31.68338789 -0.1953125 27.078125 C-0.1524909 18.05185543 -0.08427361 9.0259711 0 0 Z " fill="#000000" transform="translate(384,41)"/>
</svg>
